<?xml version="1.0" encoding="utf-8"?>
<!-- Generator: Adobe Illustrator 16.0.0, SVG Export Plug-In . SVG Version: 6.00 Build 0)  -->
<!DOCTYPE svg PUBLIC "-//W3C//DTD SVG 1.1//EN" "http://www.w3.org/Graphics/SVG/1.1/DTD/svg11.dtd">
<svg version="1.1" id="Слой_1" xmlns="http://www.w3.org/2000/svg" xmlns:xlink="http://www.w3.org/1999/xlink" x="0px" y="0px"
	  viewBox="0 0 756.181 27.52" enable-background="new 0 0 756.181 27.52" xml:space="preserve">
<g>
	<path fill="#FFFFFF" d="M310.767,13.798c0,4.536,2.973,7.509,6.899,7.509c1.792,0,3.85-0.571,5.26-2.478h-8.157v-5.832h16.314
		c0,3.087-0.534,5.032-0.953,6.022c-1.868,5.108-7.471,8.5-12.464,8.5c-7.7,0-13.493-5.755-13.493-13.722
		c0-8.004,5.946-13.76,13.493-13.76c5.184,0,12.235,2.858,13.341,11.244h-6.862c-0.953-3.812-4.04-4.879-6.479-4.879
		C313.74,6.403,310.767,9.491,310.767,13.798z"/>
	<path fill="#FFFFFF" d="M340.121,20.812h11.207v6.289h-17.725V0.419h6.518V20.812z"/>
	<path fill="#FFFFFF" d="M367.226,0c7.624,0,13.837,5.946,13.837,13.798c0,7.737-6.213,13.684-13.837,13.684
		s-13.798-5.831-13.798-13.684C353.428,5.946,359.602,0,367.226,0z M374.506,13.798c0-10.063-14.599-10.101-14.599,0
		C359.907,23.86,374.506,23.784,374.506,13.798z"/>
	<path fill="#FFFFFF" d="M395.779,0.419c6.48,0,9.605,8.424,4.498,12.045c2.82,1.448,3.964,3.773,3.964,6.022
		c0,4.307-2.935,8.614-8.538,8.614H383.43V0.419H395.779z M389.871,10.063h4.917c2.249,0,2.173-3.735,0.076-3.735h-4.993V10.063z
		 M389.871,20.926h5.832c2.744,0,2.744-4.841,0-4.841h-5.832V20.926z"/>
	<path fill="#FFFFFF" d="M423.684,23.175h-9.109l-1.486,3.926h-6.976l10.673-26.986h4.65l11.092,26.986h-7.357L423.684,23.175z
		 M417.166,16.504l-0.229,0.61h4.422l-0.152-0.458l-2.059-5.794L417.166,16.504z"/>
	<path fill="#FFFFFF" d="M440.803,20.812h11.205v6.289h-17.723V0.419h6.518V20.812z"/>
</g>
<linearGradient id="SVGID_1_" gradientUnits="userSpaceOnUse" x1="0" y1="13.7598" x2="295.6694" y2="13.7598">
	<stop  offset="0" style="stop-color:#FFFFFF;stop-opacity:0"/>
	<stop  offset="0.2419" style="stop-color:#FFFFFF;stop-opacity:0.1"/>
	<stop  offset="0.5108" style="stop-color:#FFFFFF;stop-opacity:0.5"/>
	<stop  offset="0.828" style="stop-color:#FFFFFF"/>
</linearGradient>
<polygon fill="url(#SVGID_1_)" points="147.834,10.534 0,10.534 0,16.985 147.834,16.985 295.669,16.985 295.669,10.534 "/>
<linearGradient id="SVGID_2_" gradientUnits="userSpaceOnUse" x1="460.5117" y1="13.7598" x2="756.1807" y2="13.7598">
	<stop  offset="0.172" style="stop-color:#FFFFFF"/>
	<stop  offset="0.4892" style="stop-color:#FFFFFF;stop-opacity:0.5"/>
	<stop  offset="0.7581" style="stop-color:#FFFFFF;stop-opacity:0.1"/>
	<stop  offset="1" style="stop-color:#FFFFFF;stop-opacity:0"/>
</linearGradient>
<polygon fill="url(#SVGID_2_)" points="608.347,10.534 460.512,10.534 460.512,16.985 608.347,16.985 756.181,16.985 
	756.181,10.534 "/>
</svg>
