<svg xmlns="http://www.w3.org/2000/svg" id="1" width="150" height="95" viewBox="0 0 150 95" class="undefined"><style>.a{fill:#090909;}</style><path d="M19.3 24.6h-4.1v3h4C21.1 27.6 21 24.6 19.3 24.6z" class="a"/><path d="M15.3 32.5v4h4.8c2.2 0 2.2-4 0-4H15.3z" class="a"/><path d="M55.3 29.3c3.2 0 3.2-4.5 0-4.5h-3v4.5H55.3z" class="a"/><path d="M150 0H0v95h150H150L150 0 150 0zM103.7 19.7l7.5 10.9V19.7h5.3v21.8h-4.2l-7.4-10.6v10.6h-5.3V19.7H103.7zM97.3 19.7v4.9h-3.6v12.2h3.6v4.8H84.8v-4.8h3.6V24.6h-3.6v-4.9H97.3zM69.7 19.7l7.5 10.9V19.7h5.3v21.8H78.3l-7.4-10.6v10.6h-5.3V19.7H69.7zM51.8 75.2c-8.7 0-15.8-6.7-15.8-15.6 0-9 7.1-15.8 15.8-15.8 7.8 0 14.6 5.3 15.6 13.2h-7.5c-2.3-8.9-16.4-8-16.4 2.6 0 10.7 14.3 11.4 16.4 2.4h7.5C66.3 69.9 59.7 75.2 51.8 75.2zM55.4 19.7c8.6 0 9.9 10.7 3.2 13.9l4.7 6.9v1h-5.7l-4.5-7.4h-0.9v7.4h-5.3V19.7H55.4zM33.4 19.7V34.3c0 3.2 6.1 3.2 6.1 0V19.7h5.2v14.6c0 4.8-4.2 7.2-8.3 7.2 -4.1 0-8.2-2.4-8.2-7.2V19.7H33.4zM10 19.7h10.1c5.3 0 7.8 6.9 3.7 9.8 2.3 1.2 3.2 3.1 3.2 4.9 0 3.5-2.4 7-7 7H10V19.7zM10 65.4V64.4h7.5c0 3 2.5 3.6 4.2 3.6 2.4 0 4.4-0.7 4.4-2.5 0-2.2-3.5-2.3-4.6-2.4 -4.9-0.5-10.8-1.6-11.4-8.6 0 0 0 0 0 0v0c0 0 0 0 0 0 -0.3-6.7 5.2-10.7 11.7-10.7 5.5 0 11.4 3.1 11.4 10.1h-7.5c0-2.1-1.7-3.1-4-3.1 -2.3 0-3.9 1-3.9 2.7 0 2.3 3.6 2.3 4.6 2.4 4.3 0.6 9.8 1.7 11.1 7.2 0.1 0.7 0.2 1.5 0.2 2.1 0 6.4-6.2 10.1-12 10.1C17 75.3 10.6 72.4 10 65.4zM81.3 75.3c-5.9-0.1-11.6-3.5-11.6-10.4V43.8h7.6v21c0 4.7 8.8 4.6 8.8 0V43.8h7.6v21.1c0 6.9-5.8 10.3-11.7 10.4H81.3zM95.9 75.3V43.8h7.7V67.8h13.2v7.4H95.9zM140 75.3h-20.9V43.8h7.7V67.8h13.2V75.3zM140 30.2c0 2.3-0.4 3.8-0.7 4.6 -1.5 4-5.9 6.7-9.9 6.7 -6.1 0-10.7-4.6-10.7-10.8 0-6.3 4.7-10.9 10.7-10.9h0c4.1 0 9.7 2.3 10.5 8.9h-5.4c-0.8-3-3.2-3.9-5.1-3.9 -3.1 0-5.5 2.4-5.5 5.8 0 3.6 2.4 5.9 5.5 5.9 1.4 0 3-0.5 4.2-2h-6.4V30h12.9V30.2z" class="a"/></svg>