<?xml version="1.0" encoding="utf-8"?>
<!-- Generator: Adobe Illustrator 16.0.0, SVG Export Plug-In . SVG Version: 6.00 Build 0)  -->
<!DOCTYPE svg PUBLIC "-//W3C//DTD SVG 1.1//EN" "http://www.w3.org/Graphics/SVG/1.1/DTD/svg11.dtd">
<svg version="1.1" id="Слой_1" xmlns="http://www.w3.org/2000/svg" xmlns:xlink="http://www.w3.org/1999/xlink" x="0px" y="0px"
	 viewBox="0 0 160 314.593" enable-background="new 0 0 160 314.593" xml:space="preserve">
<g>
	<path fill-rule="evenodd" clip-rule="evenodd" fill="#FFFFFF" d="M157.287,0H2.362H-0.35v2.712V311.88v2.713h2.712h154.925H160
		v-2.713V2.712V0H157.287z M157.287,311.88H2.362V2.712h154.925V311.88z"/>
	<path fill-rule="evenodd" clip-rule="evenodd" fill="#FFFFFF" d="M119.27,111.32l-4.743-4.535c0.215,1.258,1.095,2.675,2.069,3.62
		C117.443,111.233,118.423,111.4,119.27,111.32z"/>
	<path fill-rule="evenodd" clip-rule="evenodd" fill="#FFFFFF" d="M123.2,131.883l7.032,7.374c0.422,0.322,1.545,0.054,2.861-0.673
		l-7.625-7.862C124.751,131.171,124.021,131.533,123.2,131.883z"/>
	<path fill-rule="evenodd" clip-rule="evenodd" fill="#FFFFFF" d="M129.252,127.459l7.966,7.695c2.149-2.242,3.244-4.89,2.707-5.589
		l-7.374-7.033C131.781,124.336,130.967,125.713,129.252,127.459z"/>
	<path fill-rule="evenodd" clip-rule="evenodd" fill="#FFFFFF" d="M123.495,122.75c-0.254,0.255-0.355,0.604-0.315,0.935
		c0.056-0.122,0.131-0.239,0.23-0.34c0.439-0.438,1.149-0.438,1.589,0c0.184,0.183,0.285,0.414,0.315,0.653
		c0.182-0.413,0.107-0.912-0.229-1.249C124.646,122.311,123.935,122.311,123.495,122.75z"/>
	<path fill-rule="evenodd" clip-rule="evenodd" fill="#FFFFFF" d="M91.803,90.543c0.184-0.412,0.108-0.91-0.229-1.248
		c-0.438-0.438-1.149-0.438-1.587,0c-0.257,0.256-0.358,0.604-0.317,0.937c0.055-0.123,0.13-0.24,0.231-0.341
		c0.438-0.438,1.15-0.438,1.587,0C91.671,90.074,91.772,90.304,91.803,90.543z"/>
	<path fill-rule="evenodd" clip-rule="evenodd" fill="#FFFFFF" d="M112.743,112.792c2.242,2.241,3.921,3.447,6.878,3.819
		c1.516,0.19,2.719,0.267,3.898,0.248c0.488-0.007,1.025-0.003,1.583,0.042l-4.963-4.748c-1.601,0.397-3.093,0.037-4.216-1.06
		c-0.019-0.018-0.039-0.037-0.057-0.055c-0.989-0.989-2.561-3.178-2.33-5.202l-5.022-4.804c0.381,0.924,0.651,1.885,0.739,2.866
		C109.62,108.002,110.696,110.745,112.743,112.792z"/>
	<path fill-rule="evenodd" clip-rule="evenodd" fill="#FFFFFF" d="M126.139,118.02c-0.818-0.186-1.602-0.214-2.603-0.198
		c-1.228,0.019-2.473-0.06-4.035-0.257c-3.215-0.403-5.093-1.75-7.438-4.093c-2.843-2.843-3.508-6.564-3.769-9.488
		c-0.158-1.787-1.003-3.534-2.024-5.098l-4.615-4.414c1.535,2.816,2.784,6.416,2.334,10.277c-0.402,3.479,0.021,5.164,1.575,7.231
		l12.856,13.342c1.487,0.039,2.954-0.231,4.315-0.788c-0.456-0.714-0.374-1.672,0.248-2.297c0.588-0.587,1.47-0.687,2.165-0.317
		c0.062-0.066,0.12-0.133,0.184-0.198c0.915-0.916,2.126-1.394,3.354-1.396l-2.375-2.273
		C126.255,118.044,126.189,118.031,126.139,118.02z"/>
	<path fill-rule="evenodd" clip-rule="evenodd" fill="#FFFFFF" d="M91.624,96.047c-0.794-0.342-1.669-0.909-2.287-1.813
		c-0.732-1.072-1.564-2.286-2.849-2.83c-0.665-0.282-0.749-0.356-1.304-0.582l9.367,9.728c0-0.073-0.002-0.142-0.006-0.204
		C94.444,98.811,93.323,96.783,91.624,96.047z"/>
	<path fill-rule="evenodd" clip-rule="evenodd" fill="#FFFFFF" d="M82.372,81.88l3.756,3.645c2.227-2.197,2.794-3.729,2.901-4.389
		l-3.636-3.494C85.041,78.942,83.18,81.072,82.372,81.88z"/>
	<path fill-rule="evenodd" clip-rule="evenodd" fill="#FFFFFF" d="M78.126,84.91l3.493,3.635c0.399-0.064,1.114-0.298,2.1-0.959
		l-3.62-3.769C79.401,84.324,78.687,84.757,78.126,84.91z"/>
	<path fill-rule="evenodd" clip-rule="evenodd" fill="#FFFFFF" d="M39.949,46.854l31.085,31.085L34.253,114.72
		c-1.507,0.303-6.703,1.348-7.82,1.555c-1.776,0.33-3.787,2.17-4.678,4.28c-0.61,1.447-3.399,8.263-4.341,10.667
		c-0.407,1.036-0.176,2.163,0.603,2.941l0.886,0.874l0.037,0.036l0.958,0.963l0.961-0.961l7.723-7.723l0.365-0.364
		c0.485-0.485,0.953-0.732,1.39-0.732c0.596,0,1.178,0.457,1.561,0.839c1.384,1.385,1.158,2.117,0.214,3.061
		c-0.121,0.12-0.357,0.354-0.358,0.354l-7.73,7.73l-0.973,0.973l0.987,0.958l0.779,0.792c0.523,0.524,1.202,0.807,1.917,0.807
		c0.352,0,0.699-0.066,1.032-0.197c2.399-0.94,9.219-3.73,10.667-4.34c2.111-0.893,3.951-2.904,4.28-4.679
		c0.207-1.11,1.231-6.213,1.557-7.833l35.397-35.397l49.377,51.73c0.065,0.068,0.68,0.666,1.926,0.675c0.01,0,0.02,0,0.03,0
		c1.921,0,4.24-1.345,6.894-4c6.166-6.164,4.092-8.972,3.836-9.272l-0.022-0.026L89.842,79.15l34.455-34.457
		c1.481-0.298,6.609-1.329,7.73-1.537c1.776-0.33,3.787-2.169,4.678-4.28c0.546-1.291,3.357-8.153,4.343-10.667
		c0.407-1.036,0.177-2.163-0.603-2.94l-0.887-0.874l-0.035-0.036l-0.96-0.964l-0.961,0.962l-7.724,7.723l-0.362,0.362
		c-0.486,0.487-0.954,0.734-1.392,0.734c-0.597,0-1.179-0.457-1.562-0.839c-0.61-0.609-0.948-1.17-0.975-1.622
		c-0.01-0.158-0.038-0.639,0.762-1.439c0.122-0.122,0.355-0.353,0.355-0.353l7.732-7.731l0.965-0.965l-0.973-0.959l-0.783-0.799
		c-0.525-0.524-1.203-0.807-1.919-0.807c-0.353,0-0.698,0.066-1.032,0.197c-2.413,0.947-9.228,3.734-10.666,4.342
		c-2.112,0.891-3.952,2.902-4.281,4.678c-0.208,1.119-1.194,6.208-1.522,7.87L78.572,70.401L47.488,39.318l-0.099-0.099
		l-0.128-0.052c-0.106-0.042-10.826-4.438-25.777-19.388l-1.248-1.248l0.091,1.763C20.343,20.593,20.925,27.831,39.949,46.854z
		 M81.633,73.462l29.005-29.004c0,0,0.309-0.299,0.468-0.459c1.076-1.075,2.818-1.075,3.893-0.001c1.074,1.075,1.074,2.816,0,3.891
		c-0.161,0.161-0.466,0.465-0.466,0.465L86.71,76.176l-0.672-0.639l0.674-0.673l-2.585-2.584l-1.249,1.248l0.44,0.44
		c-0.289,0.035-0.604,0.113-0.943,0.237L81.633,73.462z M130.44,122.005l-0.535-0.511c-1.352-0.458-2.855-0.125-3.891,0.91
		c-0.055,0.056-0.102,0.121-0.155,0.18c0.436,0.71,0.351,1.649-0.264,2.265c-0.554,0.552-1.37,0.677-2.045,0.38
		c-1.327,0.609-2.756,0.962-4.219,1.041l3.368,3.497c-1.109,0.545-1.901,0.669-2.139,0.432l-0.002,0.002L82.536,90.365
		c0.491-0.141,1.021-0.377,1.563-0.688l0.016,0.016c0.717-0.146,1.521,0.305,2.749,0.824c1.543,0.654,2.458,1.992,3.267,3.172
		c0.539,0.788,1.339,1.241,1.874,1.474c2.116,0.915,3.382,3.32,3.502,5.118c0.026,0.424-0.009,0.813-0.096,1.16l3.846,3.99
		c0.771-1.848,1.962-6.28-2.157-10.156c-1.266-1.19-1.825-2.825-2.775-4.392c-1.931-3.188-4.031-4.944-6.176-4.561
		c0.312-0.342,0.608-0.692,0.89-1.049c2.293,0.035,4.236,2.434,5.868,4.802c1.01,1.468,1.662,3.382,2.853,4.499
		c4.79,4.506,3.018,9.812,2.212,11.6l3.254,3.378c-0.374-1.312-0.434-2.83-0.189-4.914c0.629-5.414-2.413-10.423-4.509-13.159
		l-8.305-7.942c0.3-0.529,0.527-1.042,0.666-1.522l39.923,37.934l0,0C131.038,120.177,130.951,120.927,130.44,122.005z
		 M89.447,88.757c0.72-0.721,1.888-0.721,2.608,0c0.72,0.72,0.72,1.888,0,2.608c-0.721,0.721-1.889,0.721-2.608,0
		C88.727,90.645,88.727,89.477,89.447,88.757z M86.545,86.041c-2.677,2.678-4.88,3.365-5.191,3.054l-0.015,0.016l-4.297-4.5
		c1.372-0.413,3.148-1.602,4.81-3.264c1.249-1.249,2.265-2.596,2.858-3.793c0.188-0.378,0.319-0.714,0.409-1.018l4.509,4.285
		l-0.004,0.005C89.934,81.135,89.239,83.348,86.545,86.041z M73.916,83.913c-0.069,0.073-0.128,0.17-0.182,0.278l-0.759-0.759
		l-1.248,1.248l2.583,2.585l0.271-0.271c0.235,0.236,0.46,0.461,0.656,0.657l-27.37,27.369c0,0-0.309,0.3-0.47,0.46
		c-1.075,1.075-2.816,1.074-3.891,0c-1.075-1.075-1.075-2.816,0-3.891c0.16-0.161,0.465-0.465,0.465-0.465l28.579-28.578
		L73.916,83.913z M43.021,124.051c-0.195,0.969-1.414,7.026-1.642,8.255c-0.248,1.337-1.83,2.981-3.475,3.677
		c-1.352,0.569-8.214,3.378-10.635,4.328c-0.166,0.065-0.349,0.103-0.537,0.103c-0.324,0-0.662-0.113-0.949-0.401l-0.786-0.8
		l-0.016-0.015l7.723-7.722c0,0,0.241-0.238,0.365-0.362c1.672-1.672,1.48-3.284-0.214-4.978c-0.801-0.802-1.656-1.236-2.52-1.236
		c-0.786,0-1.581,0.36-2.351,1.129c-0.124,0.125-0.364,0.364-0.364,0.364l-7.723,7.723l-0.046-0.046l-0.879-0.867
		c-0.456-0.454-0.476-1.035-0.299-1.487c0.949-2.419,3.758-9.282,4.329-10.633c0.694-1.645,2.339-3.226,3.676-3.475
		c1.224-0.227,7.23-1.436,8.242-1.64l35.524-35.524l0.984,0.984l-35.524,35.525l-0.297,0.297l-0.412,0.083
		c-1.167,0.235-7.049,1.418-8.263,1.643c-0.31,0.058-0.862,0.34-1.477,0.955c-0.508,0.508-0.924,1.11-1.171,1.694
		c-0.57,1.35-3.217,7.821-4.218,10.354l6.57-6.569l0.364-0.363c2.077-2.078,4.696-2.037,6.838,0.106
		c3.115,3.114,1.47,5.689,0.213,6.946c-0.126,0.127-0.373,0.369-0.373,0.369l-6.306,6.306c2.742-1.091,8.697-3.528,9.986-4.073
		c0.575-0.243,1.192-0.668,1.693-1.17c0.616-0.616,0.897-1.167,0.954-1.479c0.249-1.333,1.633-8.206,1.647-8.275l0.083-0.412
		l0.297-0.296l35.732-35.733l0.961,1.006L43.021,124.051z M136.936,136.771c-4.979,4.979-6.91,3.343-6.914,3.343l-8.185-8.575
		c1.831-0.443,4.216-2.112,6.23-4.125c1.543-1.542,2.794-3.204,3.524-4.678c0.287-0.576,0.466-1.072,0.57-1.503l8.538,8.111
		C140.842,129.586,141.914,131.791,136.936,136.771z M115.477,35.415c0.195-0.968,1.377-7.061,1.605-8.291
		c0.248-1.337,1.829-2.982,3.475-3.676c1.352-0.571,8.215-3.379,10.635-4.329c0.166-0.065,0.35-0.103,0.537-0.103
		c0.325,0,0.663,0.114,0.95,0.401l0.785,0.799l0.015,0.015l-7.723,7.723c0,0-0.24,0.237-0.364,0.361
		c-1.673,1.673-1.481,3.285,0.212,4.979c0.804,0.801,1.656,1.236,2.521,1.236c0.785,0,1.578-0.36,2.35-1.131
		c0.124-0.124,0.364-0.363,0.364-0.363l7.723-7.723l0.047,0.046l0.879,0.866c0.453,0.455,0.476,1.036,0.297,1.487
		c-0.948,2.421-3.757,9.283-4.328,10.634c-0.694,1.645-2.338,3.227-3.675,3.475c-1.196,0.222-6.949,1.378-8.153,1.621L88.856,78.215
		l-1.009-0.959l34.797-34.796l0.298-0.297l0.41-0.083c0.281-0.057,6.874-1.385,8.174-1.626c0.31-0.058,0.861-0.339,1.478-0.954
		c0.509-0.509,0.924-1.11,1.17-1.694c0.572-1.351,3.218-7.821,4.219-10.355l-6.57,6.57l-0.362,0.364
		c-2.078,2.077-4.698,2.036-6.839-0.106c-3.115-3.114-1.472-5.688-0.214-6.946c0.126-0.126,0.372-0.369,0.372-0.369l6.306-6.306
		c-2.74,1.091-8.696,3.528-9.986,4.072c-0.574,0.243-1.192,0.669-1.693,1.171c-0.616,0.616-0.897,1.167-0.954,1.478
		c-0.24,1.295-1.425,7.387-1.611,8.312l-0.082,0.412l-0.297,0.297L80.515,72.344l-0.984-0.984L115.477,35.415z M46.625,40.372
		l36.163,36.164l-1.51,1.509L43.021,40.439l37.586,38.277l-3.439,3.439l-36.26-36.26C28.461,33.449,24.061,26.148,22.514,22.69
		C35.916,35.609,45.352,39.837,46.625,40.372z"/>
	
		<rect x="65.027" y="91.254" transform="matrix(0.7071 0.7071 -0.7071 0.7071 84.7315 -20.2869)" fill-rule="evenodd" clip-rule="evenodd" fill="#FFFFFF" width="3.654" height="1.765"/>
	
		<rect x="67.305" y="88.911" transform="matrix(0.7071 0.7071 -0.7071 0.7071 83.7877 -22.5647)" fill-rule="evenodd" clip-rule="evenodd" fill="#FFFFFF" width="3.654" height="1.896"/>
	
		<rect x="69.583" y="86.698" transform="matrix(0.7072 0.707 -0.707 0.7072 82.8335 -24.8444)" fill-rule="evenodd" clip-rule="evenodd" fill="#FFFFFF" width="3.655" height="1.765"/>
	
		<rect x="62.795" y="93.486" transform="matrix(0.7071 0.7071 -0.7071 0.7071 85.6561 -18.0548)" fill-rule="evenodd" clip-rule="evenodd" fill="#FFFFFF" width="3.655" height="1.765"/>
	
		<rect x="53.875" y="102.406" transform="matrix(0.707 0.7072 -0.7072 0.707 89.3612 -9.1311)" fill-rule="evenodd" clip-rule="evenodd" fill="#FFFFFF" width="3.653" height="1.765"/>
	
		<rect x="49.411" y="106.87" transform="matrix(0.7072 0.707 -0.707 0.7072 91.1891 -4.6744)" fill-rule="evenodd" clip-rule="evenodd" fill="#FFFFFF" width="3.654" height="1.765"/>
	
		<rect x="47.132" y="109.083" transform="matrix(0.7071 0.7071 -0.7071 0.7071 92.1438 -2.3923)" fill-rule="evenodd" clip-rule="evenodd" fill="#FFFFFF" width="3.655" height="1.896"/>
	
		<rect x="60.563" y="95.718" transform="matrix(0.707 0.7072 -0.7072 0.707 86.5913 -15.8203)" fill-rule="evenodd" clip-rule="evenodd" fill="#FFFFFF" width="3.654" height="1.766"/>
	
		<rect x="51.643" y="104.638" transform="matrix(0.7072 0.707 -0.707 0.7072 90.2646 -6.906)" fill-rule="evenodd" clip-rule="evenodd" fill="#FFFFFF" width="3.654" height="1.765"/>
	
		<rect x="58.334" y="97.951" transform="matrix(0.7071 0.7071 -0.7071 0.7071 87.5034 -13.5946)" fill-rule="evenodd" clip-rule="evenodd" fill="#FFFFFF" width="3.655" height="1.754"/>
	
		<rect x="56.107" y="100.174" transform="matrix(0.7072 0.707 -0.707 0.7072 88.4157 -11.3697)" fill-rule="evenodd" clip-rule="evenodd" fill="#FFFFFF" width="3.655" height="1.765"/>
	
		<rect x="44.854" y="111.427" transform="matrix(0.7072 0.707 -0.707 0.7072 93.0766 -0.1185)" fill-rule="evenodd" clip-rule="evenodd" fill="#FFFFFF" width="3.654" height="1.765"/>
	
		<rect x="105.373" y="50.909" transform="matrix(0.7071 0.7071 -0.7071 0.7071 68.0202 -60.6323)" fill-rule="evenodd" clip-rule="evenodd" fill="#FFFFFF" width="3.654" height="1.764"/>
	
		<rect x="98.68" y="57.607" transform="matrix(0.707 0.7072 -0.7072 0.707 70.8026 -53.9428)" fill-rule="evenodd" clip-rule="evenodd" fill="#FFFFFF" width="3.655" height="1.754"/>
	
		<rect x="100.908" y="55.373" transform="matrix(0.7072 0.707 -0.707 0.7072 69.8478 -56.1618)" fill-rule="evenodd" clip-rule="evenodd" fill="#FFFFFF" width="3.655" height="1.764"/>
	
		<rect x="107.65" y="48.566" transform="matrix(0.7072 0.707 -0.707 0.7072 67.0553 -62.9021)" fill-rule="evenodd" clip-rule="evenodd" fill="#FFFFFF" width="3.655" height="1.894"/>
	<path fill-rule="evenodd" clip-rule="evenodd" fill="#FFFFFF" d="M114.341,44.653c-0.603-0.602-1.522-0.688-2.222-0.271
		l2.492,2.493C115.03,46.176,114.945,45.256,114.341,44.653z"/>
	
		<rect x="109.928" y="46.353" transform="matrix(0.7071 0.7071 -0.7071 0.7071 66.1325 -65.1882)" fill-rule="evenodd" clip-rule="evenodd" fill="#FFFFFF" width="3.654" height="1.764"/>
	<path fill-rule="evenodd" clip-rule="evenodd" fill="#FFFFFF" d="M44.161,114.825c0.578,0.578,1.448,0.678,2.136,0.316
		l-2.452-2.452C43.483,113.377,43.583,114.247,44.161,114.825z"/>
	
		<rect x="103.14" y="53.141" transform="matrix(0.7071 0.7071 -0.7071 0.7071 68.9442 -58.4001)" fill-rule="evenodd" clip-rule="evenodd" fill="#FFFFFF" width="3.654" height="1.764"/>
	
		<rect x="85.199" y="71.082" transform="matrix(0.707 0.7072 -0.7072 0.707 76.3973 -40.4614)" fill-rule="evenodd" clip-rule="evenodd" fill="#FFFFFF" width="3.655" height="1.765"/>
	
		<rect x="87.478" y="68.738" transform="matrix(0.7068 0.7074 -0.7074 0.7068 75.4742 -42.7424)" fill-rule="evenodd" clip-rule="evenodd" fill="#FFFFFF" width="3.653" height="1.896"/>
	
		<rect x="94.22" y="62.061" transform="matrix(0.7073 0.7069 -0.7069 0.7073 72.6073 -49.4731)" fill-rule="evenodd" clip-rule="evenodd" fill="#FFFFFF" width="3.655" height="1.764"/>
	
		<rect x="96.452" y="59.829" transform="matrix(0.7071 0.7071 -0.7071 0.7071 71.7147 -51.7116)" fill-rule="evenodd" clip-rule="evenodd" fill="#FFFFFF" width="3.654" height="1.764"/>
	
		<rect x="91.987" y="64.293" transform="matrix(0.707 0.7072 -0.7072 0.707 73.5745 -47.2492)" fill-rule="evenodd" clip-rule="evenodd" fill="#FFFFFF" width="3.655" height="1.765"/>
	
		<rect x="89.756" y="66.525" transform="matrix(0.7072 0.707 -0.707 0.7072 74.4668 -45.0123)" fill-rule="evenodd" clip-rule="evenodd" fill="#FFFFFF" width="3.654" height="1.764"/>
	<path fill-rule="evenodd" clip-rule="evenodd" fill="#FFFFFF" d="M23.644,156.993h-3.472c-1.429,0-2.817,1.39-2.817,2.899v23.402
		c0,1.512,1.388,2.899,2.817,2.899h3.472c1.389,0,2.654-1.388,2.654-2.899v-8.332h-3.021v8.495c0,0.287-0.287,0.571-0.572,0.571
		h-1.756c-0.327,0-0.572-0.284-0.572-0.571v-23.851c0-0.286,0.245-0.571,0.572-0.571h1.756c0.286,0,0.572,0.285,0.572,0.571v8.618
		h3.021v-8.333C26.298,158.382,25.032,156.993,23.644,156.993z"/>
	<path fill-rule="evenodd" clip-rule="evenodd" fill="#FFFFFF" d="M36.141,156.993h-4.002l-3.227,29.201h2.777l0.531-5.555h3.798
		l0.531,5.555h2.818L36.141,156.993z M32.465,178.189l1.552-16.459h0.163l1.593,16.459H32.465z"/>
	<polygon fill-rule="evenodd" clip-rule="evenodd" fill="#FFFFFF" points="41.979,156.993 41.979,186.194 45.002,186.194 
		45.002,167.041 49.25,186.194 52.272,186.194 52.272,156.993 49.25,156.993 49.25,176.27 45.002,156.993 	"/>
	<path fill-rule="evenodd" clip-rule="evenodd" fill="#FFFFFF" d="M55.539,156.993v29.201h6.289c1.389,0,2.655-1.388,2.655-2.858
		v-23.484c0-1.469-1.267-2.858-2.614-2.858H55.539z M61.46,183.458c0,0.287-0.285,0.571-0.572,0.571h-2.328v-24.871h2.328
		c0.287,0,0.572,0.287,0.572,0.571V183.458z"/>
	<polygon fill-rule="evenodd" clip-rule="evenodd" fill="#FFFFFF" points="74.04,186.194 74.04,174.758 78.328,156.993 
		75.428,156.993 73.794,165.161 72.651,170.837 72.488,170.837 71.467,165.161 69.751,156.993 66.811,156.993 71.017,174.758 
		71.017,186.194 	"/>
	<polygon fill-rule="evenodd" clip-rule="evenodd" fill="#FFFFFF" points="93.073,181.458 92.908,181.458 90.662,156.993 
		87.516,156.993 85.312,181.458 85.147,181.458 82.942,156.993 80.003,156.993 83.229,186.194 87.149,186.194 89.027,165.978 
		89.19,165.978 91.03,186.194 94.992,186.194 98.219,156.993 95.276,156.993 	"/>
	<polygon fill-rule="evenodd" clip-rule="evenodd" fill="#FFFFFF" points="109.734,186.194 109.734,156.993 106.712,156.993 
		106.712,169.206 103.813,169.206 103.813,156.993 100.789,156.993 100.789,186.194 103.813,186.194 103.813,171.328 
		106.712,171.328 106.712,186.194 	"/>
	<polygon fill-rule="evenodd" clip-rule="evenodd" fill="#FFFFFF" points="120.722,159.567 120.722,156.993 113.002,156.993 
		113.002,186.194 120.722,186.194 120.722,183.623 116.023,183.623 116.023,171.613 119.904,171.613 119.904,169.123 
		116.023,169.123 116.023,159.567 	"/>
	<polygon fill-rule="evenodd" clip-rule="evenodd" fill="#FFFFFF" points="131.502,159.567 131.502,156.993 123.782,156.993 
		123.782,186.194 131.502,186.194 131.502,183.623 126.806,183.623 126.806,171.613 130.687,171.613 130.687,169.123 
		126.806,169.123 126.806,159.567 	"/>
	<polygon fill-rule="evenodd" clip-rule="evenodd" fill="#FFFFFF" points="137.587,156.993 134.564,156.993 134.564,186.194 
		142.285,186.194 142.285,183.623 137.587,183.623 	"/>
	<path fill-rule="evenodd" clip-rule="evenodd" fill="#FFFFFF" d="M32.462,209.214V195.16c0-2.55-2.136-4.892-4.478-4.892h-5.857
		c-2.412,0-4.754,2.342-4.754,4.892v39.479c0,2.55,2.343,4.892,4.754,4.892h5.857c2.342,0,4.478-2.342,4.478-4.892v-14.055h-5.099
		v14.331c0,0.482-0.482,0.965-0.965,0.965h-2.962c-0.552,0-0.966-0.482-0.966-0.965v-40.238c0-0.482,0.414-0.964,0.966-0.964h2.962
		c0.483,0,0.965,0.481,0.965,0.964v14.537H32.462z"/>
	<path fill-rule="evenodd" clip-rule="evenodd" fill="#FFFFFF" d="M42.728,239.531h5.856c2.343,0,4.479-2.342,4.479-4.892v-44.371
		h-5.099v44.576c0,0.484-0.482,0.967-0.964,0.967h-2.962c-0.551,0-0.965-0.482-0.965-0.967v-44.576h-5.098v44.371
		C37.974,237.189,40.316,239.531,42.728,239.531z"/>
	<path fill-rule="evenodd" clip-rule="evenodd" fill="#FFFFFF" d="M67.669,239.531c3.789,0,6.063-2.755,6.063-6.2v-12.609
		c0-3.515-1.515-5.235-3.583-6.546l-5.512-3.65c-0.62-0.413-0.964-0.965-0.964-1.654v-13.919c0.069-0.481,0.482-0.895,1.033-0.895
		h2.895c0.481,0,0.964,0.481,0.964,0.964v12.61h5.167v-11.851c0-2.827-2.135-5.513-5.718-5.513h-3.376
		c-3.789,0-6.063,2.755-6.063,6.338v11.852c0,2.618,1.033,4.961,3.444,6.407l5.719,3.858c0.551,0.344,0.827,1.033,0.827,1.585
		v14.744c-0.069,0.346-0.345,0.759-0.827,0.759h-3.169c-0.482,0-0.896-0.482-0.896-0.967v-12.951h-5.098v12.264
		c0,2.755,2.067,5.374,5.718,5.374H67.669z"/>
	<polygon fill-rule="evenodd" clip-rule="evenodd" fill="#FFFFFF" points="83.308,239.531 88.407,239.531 88.407,194.608 
		93.781,194.608 93.781,190.268 78.002,190.268 78.002,194.608 83.308,194.608 	"/>
	<path fill-rule="evenodd" clip-rule="evenodd" fill="#FFFFFF" d="M113.071,234.983v-40.167c0-2.342-1.998-4.548-4.135-4.548h-6.544
		c-2.206,0-4.412,2.206-4.412,4.548v40.167c0,2.342,2.206,4.548,4.412,4.548h6.544C111.073,239.531,113.071,237.325,113.071,234.983
		z M107.972,234.916c0,0.482-0.482,0.965-0.965,0.965h-2.962c-0.552,0-0.965-0.482-0.965-0.965v-40.238
		c0-0.482,0.413-0.964,0.965-0.964h2.962c0.482,0,0.965,0.481,0.965,0.964V234.916z"/>
	<polygon fill-rule="evenodd" clip-rule="evenodd" fill="#FFFFFF" points="130.501,223.063 124.714,190.268 118.583,190.268 
		118.583,239.531 123.681,239.531 123.681,207.701 123.819,207.701 126.23,220.721 128.711,239.531 132.225,239.531 
		134.705,220.859 136.979,207.906 137.186,207.906 137.186,239.531 142.285,239.531 142.285,190.268 136.152,190.268 	"/>
	<path fill-rule="evenodd" clip-rule="evenodd" fill="#FFFFFF" d="M25.801,273.914h2.496v16.367c0,0.589-0.514,1.102-1.101,1.102
		h-3.303c-0.66,0-1.101-0.513-1.101-1.102V248.37c0-0.513,0.44-1.027,1.027-1.027h3.156c0.514,0,1.028,0.515,1.028,1.027v15.414
		h5.431v-14.972c0-2.717-2.275-5.212-4.77-5.212h-6.239c-2.569,0-5.065,2.495-5.065,5.212v42.204c0,2.494,2.422,5.064,4.991,5.064
		h3.01c1.834,0,3.596-1.543,4.183-3.449l1.101,3.449h3.01v-26.79h-7.854V273.914z"/>
	<path fill-rule="evenodd" clip-rule="evenodd" fill="#FFFFFF" d="M44.224,243.6l-5.798,52.48h4.992l0.953-9.983h6.826l0.955,9.983
		h5.064l-5.799-52.48H44.224z M44.811,281.694l2.79-29.58h0.294l2.862,29.58H44.811z"/>
	<path fill-rule="evenodd" clip-rule="evenodd" fill="#FFFFFF" d="M73.217,243.6H61.913v52.48h5.432v-23.635h4.183
		c0.514,0.073,1.027,0.586,1.027,1.027v22.607h5.432v-22.388c0-1.174-1.028-2.423-2.422-3.155c1.395-0.661,2.422-1.982,2.422-3.156
		v-18.643C77.987,246.095,75.711,243.6,73.217,243.6z M72.555,267.601c0,0.441-0.514,1.027-1.027,1.027h-4.183v-21.14h4.183
		c0.514,0,1.027,0.515,1.027,1.028V267.601z"/>
	<path fill-rule="evenodd" clip-rule="evenodd" fill="#FFFFFF" d="M88.482,243.6l-5.797,52.48h4.991l0.954-9.983h6.825l0.954,9.983
		h5.064l-5.799-52.48H88.482z M89.07,281.694l2.79-29.58h0.293l2.862,29.58H89.07z"/>
	<path fill-rule="evenodd" clip-rule="evenodd" fill="#FFFFFF" d="M114.613,273.914h2.495v16.367c0,0.589-0.515,1.102-1.102,1.102
		h-3.302c-0.662,0-1.102-0.513-1.102-1.102V248.37c0-0.513,0.439-1.027,1.028-1.027h3.155c0.514,0,1.028,0.515,1.028,1.027v15.414
		h5.431v-14.972c0-2.717-2.275-5.212-4.771-5.212h-6.239c-2.567,0-5.064,2.495-5.064,5.212v42.204c0,2.494,2.424,5.064,4.991,5.064
		h3.01c1.835,0,3.598-1.543,4.184-3.449l1.101,3.449h3.01v-26.79h-7.853V273.914z"/>
	<polygon fill-rule="evenodd" clip-rule="evenodd" fill="#FFFFFF" points="128.411,296.081 142.285,296.081 142.285,291.456 
		133.845,291.456 133.845,269.876 140.815,269.876 140.815,265.4 133.845,265.4 133.845,248.223 142.285,248.223 142.285,243.6 
		128.411,243.6 	"/>
	<path fill-rule="evenodd" clip-rule="evenodd" fill="#FFFFFF" d="M110.951,126.59c0.051,0.094,0.134,0.18,0.254,0.259
		L110.951,126.59z"/>
	<path fill-rule="evenodd" clip-rule="evenodd" fill="#FFFFFF" d="M130.979,106.624c-1.579,0.829-3.03,1.896-4.479,2.855l4.56,4.426
		c3.061-1.863,5.787-4.13,7.753-7.24c0.798-1.263,1.927-2.317,3.13-3.731c-2.027,0.521-3.875,0.888-5.645,1.481
		C134.481,105.025,132.673,105.733,130.979,106.624z"/>
	<path fill-rule="evenodd" clip-rule="evenodd" fill="#FFFFFF" d="M105.227,36.321c0.403,0.185,0.806,0.365,1.207,0.548l1.681-1.679
		c-1.211,0.044-2.424,0.194-3.648,0.486C104.693,35.987,104.944,36.191,105.227,36.321z"/>
	<path fill-rule="evenodd" clip-rule="evenodd" fill="#FFFFFF" d="M96.266,23.548c1.264,1.378,2.922,2.229,4.755,2.574
		c2.328,0.438,3.72,2.314,5.653,3.345c-4.369-0.596-8.288,0.674-12.128,2.416c0.33,0.221,0.644,0.34,0.967,0.381
		c2.049,0.262,4.098,0.525,6.153,0.753c2.867,0.318,5.736,0.454,8.599,0.021l1.073-1.073c0.278-1.379,1.189-5.916,1.48-7.44
		c-2.004-2.304-4.428-4.118-7.327-5.654c0.759,3.77,1.521,7.28,4.167,10.074c-1.48-0.807-2.952-1.632-4.447-2.412
		c-0.8-0.418-1.284-0.891-1.526-1.892c-0.719-2.963-3.01-4.473-5.706-5.428c-1.896-0.673-3.833-1.234-5.754-1.845
		c-0.206,0-0.409,0-0.612,0c0.136,0.367,0.188,0.802,0.421,1.093C93.415,20.181,94.778,21.923,96.266,23.548z"/>
	<path fill-rule="evenodd" clip-rule="evenodd" fill="#FFFFFF" d="M134.943,69.586c1.814-0.336,2.916-1.642,3.748-3.157
		c0.991-1.807,1.476-3.812,1.467-5.862c-0.014-3.456-0.175-6.912-0.521-10.427c-0.133,0.159-0.289,0.305-0.395,0.48
		c-1.258,2.13-2.516,4.261-3.763,6.398c-1.07,1.834-1.585,3.805-1.429,5.938c0.033,0.425,0.004,0.854,0.004,1.361
		c-1.19-3.6-2.348-7.102-3.461-10.463c0.204,0.267,0.513,0.671,0.948,1.242c0.436-0.584,0.858-1.02,1.125-1.536
		c1.209-2.356,1.958-4.774,1.476-7.396c-1.207,0.234-3.718,0.736-5.534,1.101c0.04,1.052,0.124,2.119,0.229,3.201
		c-0.525-0.994-1.074-1.965-1.64-2.917c-0.108,0.021-0.21,0.042-0.293,0.059l-3.395,3.393c1.296,0.821,2.661,1.532,4.143,2.052
		c0.175,0.061,0.387,0.198,0.452,0.355c0.798,1.886,1.57,3.783,2.35,5.677c-0.07,0.052-0.142,0.105-0.213,0.157
		c-2.326-2.965-5.364-4.836-8.703-6.269l-0.792,0.792c1.188,1.628,2.52,3.178,3.5,4.923c1.895,3.375,4.471,6.028,7.676,8.134
		c0.26,0.171,0.567,0.474,0.606,0.75c0.35,2.501,0.646,5.009,0.958,7.515c-0.295-0.12-0.366-0.292-0.447-0.459
		c-0.682-1.425-1.121-3.054-2.103-4.233c-1.968-2.361-4.23-4.477-6.369-6.693c-0.091,0.359-0.04,0.644,0.041,0.918
		c0.505,1.719,0.979,3.448,1.534,5.15c1.241,3.807,2.505,7.659,5.209,10.699c1.517,1.702,2.104,3.34,1.51,5.528
		c-0.374,1.372-0.496,2.811-0.732,4.22c-0.094,0.003-0.183,0.006-0.276,0.01c-0.011-2.489-0.946-4.666-2.141-6.757
		c-1.19-2.086-2.315-4.215-3.923-6.056c-0.124,0.415-0.145,0.779-0.122,1.141c0.205,3.321,0.447,6.64,0.624,9.962
		c0.178,3.344,1.28,6.345,3.183,9.077c0.118,0.17,0.265,0.454,0.201,0.599c-1.078,2.46-2.189,4.907-3.29,7.357
		c-0.085-0.031-0.171-0.063-0.256-0.094c0-0.223-0.024-0.45,0.004-0.669c0.603-4.348-0.299-8.493-1.707-12.565
		c-0.135-0.391-0.452-0.719-0.77-1.207c-0.794,3.741-1.526,7.207-2.263,10.673c-0.167,0.786-0.338,1.585-0.462,2.387l5.429,5.269
		c1.378-2.586,2.796-5.246,4.165-7.817c0.758-0.154,1.547-0.233,2.281-0.479c3.65-1.221,6.53-3.4,8.292-6.897
		c1.435-2.842,2.847-5.694,4.273-8.539c0.087-0.174,0.211-0.329,0.317-0.493c0-0.136,0-0.272,0-0.408
		c-0.539,0.263-1.117,0.468-1.611,0.798c-2.683,1.783-5.396,3.521-7.981,5.435c-1.146,0.849-2.014,2.074-2.938,3.052
		c0.38-1.698,0.808-3.537,1.2-5.384c0.197-0.927,0.073-2.046,0.565-2.749c0.468-0.669,1.561-0.887,2.358-1.342
		c3.342-1.905,4.929-5.067,5.873-8.576c0.771-2.867,1.281-5.805,1.898-8.714c0.026-0.117-0.039-0.253-0.116-0.672
		c-3.776,3.606-7.59,6.894-9.497,11.978C135.271,75.426,135.104,72.488,134.943,69.586z"/>
	<path fill-rule="evenodd" clip-rule="evenodd" fill="#FFFFFF" d="M46.662,132.08c-0.218,1.099-0.403,2.038-0.479,2.445l-0.72,0.167
		c1.999,0.563,3.999,1.113,6.029,1.522c2.984,0.603,6.039,0.452,8.929-0.594c1.242-0.449,2.386-1.258,3.454-2.063
		c0.686-0.516,1.236-0.705,2.086-0.471c1.79,0.491,3.618,0.838,5.428,1.252c0.22,0.05,0.431,0.144,0.63,0.211
		c-5.321,1.734-10.099,4.56-15.256,7.104c0.333,0.129,0.439,0.206,0.542,0.204c4.071-0.05,8.139-0.149,12.107-1.222
		c3.389-0.916,6.577-2.169,8.75-5.148c0.06-0.082,0.124-0.169,0.203-0.226c0.551-0.393,4.22-0.15,4.666,0.363
		c3.492,4.032,8.25,5.208,13.231,5.832c2.248,0.282,4.518,0.408,6.775,0.604c0.477,0,0.953,0,1.429,0
		c-0.177-0.252-0.299-0.635-0.541-0.741c-5.028-2.204-9.541-5.565-15.337-6.698c2.854-0.685,5.425-1.303,7.977-1.917
		c1.534,1.993,3.74,2.898,6.097,3.421c4.452,0.984,8.752,0.13,12.979-1.293c0.841-0.283,1.686-0.563,2.523-0.886l-1.314-1.341
		c-5.62-1.27-11.203-2.69-17.065-1.041c1.987-0.974,4.015-1.877,5.953-2.939c1.536-0.842,3.024-1.776,4.544-2.717l-1.42-1.449
		c-1.061,0.561-2.033,1.292-3.047,1.943c0.658-1.089,1.211-2.2,1.684-3.333l-3.166-3.228c-0.888,0.894-1.772,1.792-2.64,2.705
		c-1.886,1.986-3.425,4.212-3.767,7.056c-0.026,0.212-0.236,0.52-0.423,0.581c-1.797,0.578-3.608,1.113-5.415,1.66
		c2.629-2.7,5.089-5.376,6.048-9.119c-2.568,1.037-5.038,1.956-7.436,3.037c-1.217,0.547-2.436,1.241-3.412,2.133
		c-1.514,1.379-2.946,2.906-3.336,5.185c-1.863,0-3.766-0.042-5.664,0.02c-0.748,0.024-1.087-0.246-1.318-0.914
		c-0.833-2.398-2.264-4.386-4.579-5.48c-3.042-1.44-6.178-2.683-9.452-4.086c1.163,3.908,3.765,6.615,6.502,9.314
		c-2.02-0.498-4.013-1.075-5.985-1.718c-0.197-0.064-0.351-0.532-0.37-0.824c-0.109-1.642-0.594-3.182-1.691-4.381
		c-1.893-2.069-3.817-4.11-5.747-6.146l-2.474,2.473c0.665,1.862,1.584,3.641,2.401,5.496c-1.563-1.034-3.157-2.084-4.745-3.153
		l-3.113,3.113c-0.04,0.198-0.093,0.465-0.155,0.774c0.993-0.191,1.977-0.501,2.949-0.952c0.279-0.129,0.722-0.176,0.977-0.044
		c2.762,1.423,5.502,2.89,8.245,4.347c0.085,0.046,0.151,0.128,0.408,0.351C55.465,130.338,51.053,131.142,46.662,132.08z"/>
	<path fill-rule="evenodd" clip-rule="evenodd" fill="#FFFFFF" d="M25.41,99.729c1.524,0.823,3.202,1.362,5,2.107
		c1.165,2.211,2.481,4.711,3.795,7.203c-5.195-3.402-9.045-5.013-14.605-6.089c0.07,0.213,0.081,0.418,0.188,0.54
		c2.435,2.778,4.481,5.875,7.327,8.321c0.113,0.097,0.227,0.19,0.34,0.283c1.803-0.359,3.849-0.77,4.698-0.941l7.812-7.812
		c-0.416-2.606-0.992-5.191-1.486-7.787c-0.299-1.566-0.613-3.13-0.92-4.696c-0.532,0.813-0.973,1.653-1.199,2.548
		c-1.09,4.32-2.442,8.627-0.991,13.169c-0.116,0.03-0.233,0.059-0.349,0.087c-1.369-2.843-2.737-5.686-4.083-8.484
		c2.057-1.822,3.152-4.086,3.463-6.49c0.579-4.468,0.758-8.988,1.096-13.487c0.013-0.176-0.053-0.357-0.083-0.537
		c-0.088-0.021-0.176-0.043-0.265-0.064c-2.902,4.41-6.125,8.68-5.842,14.465c-0.108-0.013-0.217-0.028-0.326-0.042
		c-0.509-2.986-1.018-5.973-1.521-8.916c3.049-1.653,8.162-12.408,9.035-19.103c-1.914,1.813-3.79,3.668-5.585,5.6
		c-1.859,2-2.768,4.504-3.555,7.094c0.167-3.028,0.496-6.015,0.843-9c0.02-0.175,0.159-0.413,0.308-0.482
		c2.787-1.325,4.792-3.548,6.593-5.933c2.002-2.651,3.878-5.396,5.785-8.12L40.2,52.486c-3.777,1.989-7.484,3.854-10.035,7.44
		c0.735-2.215,1.594-4.338,2.474-6.452c0.064-0.154,0.274-0.272,0.442-0.353c1.725-0.842,3.618-1.446,5.148-2.554
		c0.01-0.007,0.02-0.015,0.03-0.022l-1.001-1c-1.057-1.057-2.053-2.075-2.999-3.06c-0.616,0.942-1.238,1.896-1.885,2.886
		c0.381-1.55,0.469-3.036,0.366-4.485c-1.491-1.588-2.834-3.078-4.045-4.472c-0.492,1.685-0.979,3.372-1.432,5.066
		c-0.905,3.384,0.072,6.423,1.905,9.26c0.109,0.168,0.363,0.241,0.568,0.371c-0.75,2.195-1.522,4.458-2.252,6.596
		c-0.733-1.927-1.349-4.032-2.319-5.957c-0.979-1.942-2.311-3.705-3.697-5.503c-0.06,0.72-0.146,1.438-0.173,2.157
		c-0.142,3.655-0.672,7.308,0.083,10.963c0.534,2.586,1.673,4.7,4.112,5.963c0.211,0.11,0.399,0.521,0.382,0.777
		c-0.159,2.427-0.365,4.85-0.572,7.457c-2.254-4.22-4.734-8.126-9.038-10.586c0.296,1.635,0.508,3.207,0.876,4.74
		c0.552,2.295,1.078,4.614,1.862,6.834c1.084,3.073,3.252,5.29,6.186,6.702c0.575,0.276,0.788,0.641,0.89,1.198
		c0.411,2.256,0.836,4.51,1.262,6.791c-0.12-0.137-0.259-0.324-0.426-0.481c-1.033-0.971-1.979-2.068-3.128-2.876
		c-2.604-1.83-5.308-3.521-7.977-5.258c-0.219-0.143-0.483-0.217-0.726-0.322c0,0.068,0,0.136,0,0.204
		c1.359,2.684,2.734,5.358,4.071,8.051C20.615,95.502,22.458,98.135,25.41,99.729z"/>
	<path fill-rule="evenodd" clip-rule="evenodd" fill="#FFFFFF" d="M48.018,35.551c1.229,0.637,1.907,0.915,1.933,0.926l0.128,0.052
		l0.099,0.099l1.525,1.525c1.464-0.638,2.924-1.286,4.393-1.91c0.251-0.107,0.522-0.167,0.784-0.249
		c-0.124-0.181-0.248-0.362-0.371-0.543C53.66,35.034,50.832,35.047,48.018,35.551z"/>
	<path fill-rule="evenodd" clip-rule="evenodd" fill="#FFFFFF" d="M46.751,34.868c0.77-0.652,1.545-1.293,2.333-1.918
		c0.171-0.135,0.479-0.157,0.718-0.139c2.052,0.152,4.112,0.529,6.154,0.446c3.007-0.122,6.002-0.566,9.003-0.877
		c0.584-0.061,1.168-0.14,1.862-0.224c-1.682-1.59-8.463-3.561-13.499-2.368c1.584-1.209,2.966-2.289,4.382-3.321
		c0.212-0.154,0.596-0.047,0.884-0.122c1.262-0.327,2.643-0.451,3.753-1.061c2.946-1.62,5.058-4.17,6.915-6.922
		c0.165-0.244,0.079-0.658,0.11-0.993c-0.068,0-0.136,0-0.204,0c-2.153,0.68-4.316,1.328-6.455,2.049
		c-2.541,0.857-4.496,2.342-5.184,5.109c-0.055,0.225-0.26,0.463-0.461,0.597c-1.551,1.026-3.119,2.028-4.76,3.004
		c2.061-2.745,2.755-5.985,3.547-9.393c-3.522,2.058-6.798,4.142-8.923,7.568c-1.377,2.22-1.548,3.83-0.857,6.377
		c-0.391,0.372-0.78,0.743-1.171,1.116C45.58,34.205,46.197,34.561,46.751,34.868z"/>
	<path fill-rule="evenodd" clip-rule="evenodd" fill="#FFFFFF" d="M41.962,25.011c-1.139,1.554-2.397,2.976-3.514,4.458
		c1.389,1.021,2.673,1.91,3.843,2.68C42.556,29.834,42.372,27.468,41.962,25.011z"/>
	<path fill-rule="evenodd" clip-rule="evenodd" fill="#FFFFFF" d="M35.317,36.457c0.012,0.008,0.023,0.016,0.035,0.023
		c-0.012-0.012-0.022-0.024-0.033-0.037C35.319,36.448,35.318,36.452,35.317,36.457z"/>
</g>
</svg>
